<svg xmlns="http://www.w3.org/2000/svg" viewBox="0 0 300 100">
  <!-- Background -->
  <rect width="300" height="100" rx="10" ry="10" fill="#fffbeb" />
  
  <!-- Main Text -->
  <text x="150" y="50" font-family="Arial, sans-serif" font-size="24" font-weight="bold" text-anchor="middle" font-variant="small-caps" fill="#333">
    Explorable Explanations
  </text>
  
  <!-- Interactive Element Icons -->
  <g transform="translate(50, 70) scale(0.8)">
    <!-- Graph Icon -->
    <rect x="0" y="0" width="25" height="20" fill="#ffb300" rx="2" ry="2" />
    <line x1="5" y1="5" x2="5" y2="15" stroke="#333" stroke-width="1.5" />
    <line x1="5" y1="15" x2="20" y2="15" stroke="#333" stroke-width="1.5" />
    <path d="M7,13 L10,8 L13,10 L17,5 L20,7" fill="none" stroke="#333" stroke-width="1.5" stroke-linejoin="round" />
  </g>
  
  <g transform="translate(100, 70) scale(0.8)">
    <!-- Gear Icon - Properly Centered -->
    <circle cx="13" cy="10" r="8" fill="#ffd700" />
    <path d="M13,2 L15,2.5 L15.5,5.5 L17,6 L19.5,4 L21,5.5 L19,8 L19.5,9.5 L22.5,10 L22,12 L19,12.5 L18.5,14 L20.5,16.5 L19,18 L16.5,16 L15,16.5 L14.5,19.5 L12.5,20 L11.5,17 L10,16.5 L7.5,18.5 L6,17 L8,14.5 L7.5,13 L4.5,12.5 L4,10.5 L7,9.5 L7.5,8 L5.5,5.5 L7,4 L9.5,6 L11,5.5 L11.5,2.5 Z" fill="#ffd700" stroke="#333" stroke-width="1" />
    <circle cx="13" cy="10" r="3" fill="#fffbeb" stroke="#333" stroke-width="1" />
  </g>
  
  <g transform="translate(150, 70) scale(0.8)">
    <!-- Formula Icon -->
    <rect x="0" y="0" width="30" height="20" fill="#ffd700" rx="2" ry="2" />
    <text x="15" y="14" font-family="Arial, sans-serif" font-size="12" font-weight="bold" text-anchor="middle" fill="#333">∑</text>
  </g>
  
  <g transform="translate(200, 70) scale(0.8)">
    <!-- Slider Icon -->
    <rect x="0" y="8" width="30" height="4" fill="#ffb300" rx="2" ry="2" />
    <circle cx="15" cy="10" r="6" fill="#ffd700" stroke="#333" stroke-width="1" />
  </g>
  
  <!-- Tagline -->
  <text x="150" y="95" font-family="Arial, sans-serif" font-size="12" text-anchor="middle" font-style="italic" fill="#b38600">
    discovering engineering through interactive learning
  </text>
  
  <!-- Golden Border -->
  <rect width="300" height="100" rx="10" ry="10" fill="none" stroke="#ffd700" stroke-width="3" />
</svg>